<?xml version="1.0" encoding="UTF-8" standalone="no"?>
<svg
   xmlns:dc="http://purl.org/dc/elements/1.1/"
   xmlns:cc="http://creativecommons.org/ns#"
   xmlns:rdf="http://www.w3.org/1999/02/22-rdf-syntax-ns#"
   xmlns:svg="http://www.w3.org/2000/svg"
   xmlns="http://www.w3.org/2000/svg"
   id="svg8"
   version="1.1"
   viewBox="0 0 210 297"
   height="297mm"
   width="210mm">
  <defs
     id="defs2" />
  <metadata
     id="metadata5">
    <rdf:RDF>
      <cc:Work
         rdf:about="">
        <dc:format>image/svg+xml</dc:format>
        <dc:type
           rdf:resource="http://purl.org/dc/dcmitype/StillImage" />
        <dc:title></dc:title>
      </cc:Work>
    </rdf:RDF>
  </metadata>
  <g
     id="layer1">
    <g
       transform="matrix(0.26458333,0,0,0.26458333,17.852837,-15.022368)"
       id="g38">
      <rect
         style="fill:#2b5876"
         x="140.75999"
         y="282.78"
         width="15.3"
         height="55.080002"
         id="rect10" />
      <rect
         style="fill:#2b5876"
         x="162.17999"
         y="282.78"
         width="15.3"
         height="55.080002"
         id="rect12" />
      <rect
         style="fill:#2b5876"
         x="306"
         y="282.78"
         width="15.3"
         height="55.080002"
         id="rect14" />
      <rect
         style="fill:#2b5876"
         x="327.42001"
         y="282.78"
         width="15.3"
         height="55.080002"
         id="rect16" />
      <rect
         style="fill:#2b5876"
         x="471.23999"
         y="282.78"
         width="15.3"
         height="55.080002"
         id="rect18" />
      <rect
         style="fill:#2b5876"
         x="492.66"
         y="282.78"
         width="15.3"
         height="55.080002"
         id="rect20" />
      <path
         style="fill:#2b5876"
         d="m 537.25,325.62 -4.21,-60.435 h -0.11 L 532.441,258.3 H 452.88 v -6.12 h -36.72 v 6.12 h -73.44 v -6.12 H 306 v 6.12 h -73.44 v -6.12 h -36.72 v 6.12 h -91.8 -6.12 v 104.04 l 24.48,6.12 h 12.24 48.96 19.486 c 2.528,7.118 9.253,12.24 17.234,12.24 7.981,0 14.707,-5.123 17.234,-12.24 h 62.326 48.96 74.566 c 2.527,7.118 9.26,12.24 17.233,12.24 7.975,0 14.707,-5.123 17.234,-12.24 h 7.246 67.32 l 6.119,-6.12 V 343.98 Z M 128.52,313.38 h -24.48 v -36.72 h 24.48 z m 55.08,48.96 h -48.96 v -85.68 h 48.96 z m 36.72,12.24 c -6.756,0 -12.24,-5.483 -12.24,-12.24 0,-6.756 5.483,-12.24 12.24,-12.24 6.757,0 12.24,5.483 12.24,12.24 0,6.757 -5.483,12.24 -12.24,12.24 z m 18.36,-61.2 h -48.96 v -36.72 h 48.96 z m 55.08,0 H 244.8 v -36.72 h 48.96 z m 55.08,48.96 h -48.96 v -85.68 h 48.96 z m 55.08,-48.96 h -48.96 v -36.72 h 48.96 z m 36.72,61.2 c -6.756,0 -12.239,-5.483 -12.239,-12.24 0,-6.756 5.483,-12.24 12.239,-12.24 6.757,0 12.24,5.483 12.24,12.24 0,6.757 -5.484,12.24 -12.24,12.24 z M 459,313.38 H 410.04 V 276.66 H 459 Z m 55.08,48.96 h -48.96 v -85.68 h 48.96 z m 6.12,-36.72 v -55.08 h 10.141 l 3.844,55.08 z"
         id="path22" />
    </g>
  </g>
</svg>
