<?xml version="1.0" encoding="UTF-8" standalone="no"?>
<svg
   xmlns:dc="http://purl.org/dc/elements/1.1/"
   xmlns:cc="http://creativecommons.org/ns#"
   xmlns:rdf="http://www.w3.org/1999/02/22-rdf-syntax-ns#"
   xmlns:svg="http://www.w3.org/2000/svg"
   xmlns="http://www.w3.org/2000/svg"
   id="svg8"
   version="1.1"
   viewBox="0 0 210 297"
   height="297mm"
   width="210mm">
  <defs
     id="defs2" />
  <metadata
     id="metadata5">
    <rdf:RDF>
      <cc:Work
         rdf:about="">
        <dc:format>image/svg+xml</dc:format>
        <dc:type
           rdf:resource="http://purl.org/dc/dcmitype/StillImage" />
        <dc:title></dc:title>
      </cc:Work>
    </rdf:RDF>
  </metadata>
  <g
     id="layer1">
    <path
       id="path21"
       d="m 42.855046,225.82335 13.788147,-13.04284 c 0,0 0.372652,-1.86326 4.844483,2.23592 4.471829,4.09918 13.788144,13.41549 13.788144,13.41549 0,0 1.206225,2.86131 7.453053,-0.7453 6.246826,-3.60661 36.892607,-20.49589 36.892607,-20.49589 0,0 4.47183,1.49061 -5.96245,-8.94367 -7.45305,-7.08039 -7.08039,-7.08039 -7.08039,-7.08039 v -27.5763 l 10.80692,-11.17957 23.47712,-0.37266 -0.37266,-11.92488 h 14.9061 l 15.65141,-16.39671 0.74531,-22.35916 -29.43956,-28.694246 v -5.962441 c 0,0 0.74531,-1.863262 -6.33509,-2.608569 -1.49061,-0.372652 -2.60857,0 -2.60857,0 L 108.81455,89.43251 c 0,0 -1.86326,1.117957 2.60857,5.589788 4.47183,4.471832 4.47183,4.844484 4.47183,4.844484 l -0.7453,23.849768 28.32159,18.25997 -0.37265,3.35388 13.04284,12.67018 v 8.94367 l -10.43427,10.80692 v 14.1608 l -21.61385,11.92488 0.37265,7.0804 -11.55223,6.70775 -11.17958,-10.06162 c 0,0 -0.7453,-2.60857 -5.589785,0.37265 -4.844484,2.98122 -44.718309,25.71303 -44.718309,25.71303 0,0 -4.099179,3.72652 -8.57101,-2.98122 0,-0.37265 -2.608567,-2.23592 0,-4.84449 z"
       style="fill:none;stroke:#000000;stroke-width:0.26458332px;stroke-linecap:butt;stroke-linejoin:miter;stroke-opacity:1" />
  </g>
</svg>
