<?xml version="1.0" encoding="UTF-8" standalone="no"?>
<svg
   xmlns:dc="http://purl.org/dc/elements/1.1/"
   xmlns:cc="http://creativecommons.org/ns#"
   xmlns:rdf="http://www.w3.org/1999/02/22-rdf-syntax-ns#"
   xmlns:svg="http://www.w3.org/2000/svg"
   xmlns="http://www.w3.org/2000/svg"
   id="svg8"
   version="1.1"
   viewBox="0 0 210 297"
   height="297mm"
   width="210mm">
  <defs
     id="defs2" />
  <metadata
     id="metadata5">
    <rdf:RDF>
      <cc:Work
         rdf:about="">
        <dc:format>image/svg+xml</dc:format>
        <dc:type
           rdf:resource="http://purl.org/dc/dcmitype/StillImage" />
        <dc:title></dc:title>
      </cc:Work>
    </rdf:RDF>
  </metadata>
  <g
     id="layer1">
    <path
       id="path21"
       d="m 47.204071,237.46875 h 5.712595 c 0,0 2.104641,-0.90199 2.104641,-3.90862 0,-3.00663 -0.300664,-22.85038 -0.300664,-22.85038 0,0 0.601326,-3.30729 -3.908618,-6.91524 -4.509942,-3.60796 -4.509942,-3.3073 -4.810604,-10.82387 -0.300665,-7.51657 0.300662,-28.86363 0.300662,-28.86363 l 9.320548,-16.53646 15.033143,-8.71923 -0.901988,-40.589484 9.019887,-9.320549 46.302087,-27.059659 30.96827,0.300664 3.30729,-2.104641 c 0,0 1.20265,-1.20265 3.60796,0.901988 2.4053,2.104642 5.71259,4.810607 5.71259,4.810607 l 12.32718,-6.013257 c 0,0 1.50332,-1.803979 0,-3.307292"
       style="fill:none;stroke:#000000;stroke-width:0.26458332px;stroke-linecap:butt;stroke-linejoin:miter;stroke-opacity:1" />
  </g>
</svg>
