<?xml version="1.0" encoding="UTF-8" standalone="no"?>
<!-- Created with Inkscape (http://www.inkscape.org/) -->

<svg
   xmlns:dc="http://purl.org/dc/elements/1.1/"
   xmlns:cc="http://creativecommons.org/ns#"
   xmlns:rdf="http://www.w3.org/1999/02/22-rdf-syntax-ns#"
   xmlns:svg="http://www.w3.org/2000/svg"
   xmlns="http://www.w3.org/2000/svg"
   xmlns:sodipodi="http://sodipodi.sourceforge.net/DTD/sodipodi-0.dtd"
   xmlns:inkscape="http://www.inkscape.org/namespaces/inkscape"
   width="210mm"
   height="297mm"
   viewBox="0 0 210 297"
   version="1.1"
   id="svg8"
   inkscape:version="0.92.1 r15371"
   sodipodi:docname="trace-bus-58.svg">
  <defs
     id="defs2" />
  <sodipodi:namedview
     id="base"
     pagecolor="#ffffff"
     bordercolor="#666666"
     borderopacity="1.0"
     inkscape:pageopacity="0.0"
     inkscape:pageshadow="2"
     inkscape:zoom="0.58"
     inkscape:cx="400"
     inkscape:cy="560"
     inkscape:document-units="mm"
     inkscape:current-layer="layer1"
     showgrid="false"
     inkscape:window-width="1062"
     inkscape:window-height="753"
     inkscape:window-x="125"
     inkscape:window-y="125"
     inkscape:window-maximized="0" />
  <metadata
     id="metadata5">
    <rdf:RDF>
      <cc:Work
         rdf:about="">
        <dc:format>image/svg+xml</dc:format>
        <dc:type
           rdf:resource="http://purl.org/dc/dcmitype/StillImage" />
        <dc:title></dc:title>
      </cc:Work>
    </rdf:RDF>
  </metadata>
  <g
     inkscape:label="Calque 1"
     inkscape:groupmode="layer"
     id="layer1">
    <path
       style="fill:none;stroke:#000000;stroke-width:0.26458332px;stroke-linecap:butt;stroke-linejoin:miter;stroke-opacity:1"
       d="m 26.914512,249.10129 14.141521,-12.31681 38.318966,0.91236 c 0,0 2.73707,-0.91236 2.280891,-5.47414 -0.456179,-2.73707 -1.368534,-6.84267 4.105603,-6.84267 5.474139,0 12.316812,0 12.316812,0 l 32.388645,-46.98635 -14.5977,-20.07184 -0.45618,-6.84267 c 0,0 -1.82471,-1.82472 7.29885,-1.82472 9.12357,0 12.31681,-0.45617 12.31681,-0.45617 l 12.77299,-9.12357 -0.91236,-19.61566 17.33478,-8.21121 0.45617,-60.215512 c 0,0 -2.73706,-2.280891 5.93032,-2.73707 8.66739,-0.456178 12.77299,-1.368536 12.31681,3.649425 -0.45618,5.01796 -0.45618,5.01796 -0.45618,5.01796"
       id="path21"
       inkscape:connector-curvature="0" />
  </g>
</svg>
