<?xml version="1.0" encoding="UTF-8" standalone="no"?>
<!-- Created with Inkscape (http://www.inkscape.org/) -->

<svg
   xmlns:dc="http://purl.org/dc/elements/1.1/"
   xmlns:cc="http://creativecommons.org/ns#"
   xmlns:rdf="http://www.w3.org/1999/02/22-rdf-syntax-ns#"
   xmlns:svg="http://www.w3.org/2000/svg"
   xmlns="http://www.w3.org/2000/svg"
   xmlns:sodipodi="http://sodipodi.sourceforge.net/DTD/sodipodi-0.dtd"
   xmlns:inkscape="http://www.inkscape.org/namespaces/inkscape"
   width="210mm"
   height="297mm"
   viewBox="0 0 210 297"
   version="1.1"
   id="svg8"
   inkscape:version="0.92.1 r15371"
   sodipodi:docname="trace-bus-83.svg">
  <defs
     id="defs2" />
  <sodipodi:namedview
     id="base"
     pagecolor="#ffffff"
     bordercolor="#666666"
     borderopacity="1.0"
     inkscape:pageopacity="0.0"
     inkscape:pageshadow="2"
     inkscape:zoom="1.08"
     inkscape:cx="400"
     inkscape:cy="560"
     inkscape:document-units="mm"
     inkscape:current-layer="layer1"
     showgrid="false"
     inkscape:window-width="1240"
     inkscape:window-height="1042"
     inkscape:window-x="25"
     inkscape:window-y="0"
     inkscape:window-maximized="0" />
  <metadata
     id="metadata5">
    <rdf:RDF>
      <cc:Work
         rdf:about="">
        <dc:format>image/svg+xml</dc:format>
        <dc:type
           rdf:resource="http://purl.org/dc/dcmitype/StillImage" />
        <dc:title></dc:title>
      </cc:Work>
    </rdf:RDF>
  </metadata>
  <g
     inkscape:label="Calque 1"
     inkscape:groupmode="layer"
     id="layer1">
    <path
       style="fill:none;stroke:#000000;stroke-width:0.26458332px;stroke-linecap:butt;stroke-linejoin:miter;stroke-opacity:1"
       d="m 180.06366,210.27546 -13.96412,-14.45409 -9.79939,-15.924 -4.16474,-0.24498 -3.42978,-7.59452 c 0,0 -0.73495,-4.40972 -4.40972,-2.69483 -3.67477,1.71489 -11.75926,6.3696 -11.75926,6.3696 0,0 -1.46991,0.24498 -1.22492,-2.93982 l 0.24498,-3.1848 c 0,0 0.73495,-1.71489 -3.67477,-1.4699 -4.40972,0.24498 -11.0243,0.48996 -11.0243,0.48996 L 84.764659,150.25424 75.945216,135.31018 62.471064,121.83603 h -5.879629 l -7.349538,-12.49421 c 0,0 -0.489968,-1.95988 -4.654706,-2.20486 -4.164737,-0.24499 -7.349537,-0.24499 -7.349537,-0.24499 L 31.113039,96.357637 c 0,0 -0.686595,-2.422447 -5.879629,-0.979937 l -4.409722,1.224923 -2.204861,3.184797"
       id="path21"
       inkscape:connector-curvature="0"
       sodipodi:nodetypes="cccccscccccccccccccscc" />
  </g>
</svg>
